<?xml version="1.0" encoding="UTF-8" standalone="no"?>
<!DOCTYPE svg PUBLIC "-//W3C//DTD SVG 1.1//EN" "http://www.w3.org/Graphics/SVG/1.1/DTD/svg11.dtd">
<!-- Created with Vectornator (http://vectornator.io/) -->
<svg height="12.0pt" stroke-miterlimit="10" style="fill-rule:nonzero;clip-rule:evenodd;stroke-linecap:round;stroke-linejoin:round;" version="1.1" viewBox="0 0 12 12" width="12.0pt" xml:space="preserve" xmlns="http://www.w3.org/2000/svg" xmlns:xlink="http://www.w3.org/1999/xlink">
<defs/>
<clipPath id="ArtboardFrame">
<rect height="12" width="12" x="0" y="0"/>
</clipPath>
<g clip-path="url(#ArtboardFrame)" id="Untitled">
<path d="M7.844 1.1715C7.34165 0.682599 6.54135 0.682599 6.039 1.1715L1.226 5.8915C1.05854 6.05427 0.791964 6.05427 0.6245 5.8915C0.544836 5.81403 0.499892 5.70762 0.499892 5.5965C0.499892 5.48538 0.544836 5.37897 0.6245 5.3015L5.4375 0.5815C6.27467-0.233207 7.60833-0.233207 8.4455 0.5815C8.91804 1.04105 9.14187 1.69914 9.0475 2.3515C9.70796 2.25756 10.3746 2.47553 10.852 2.9415L10.877 2.9665C11.2753 3.35387 11.5 3.88588 11.5 4.4415C11.5 4.99712 11.2753 5.52913 10.877 5.9165L6.524 10.185C6.49745 10.2108 6.48248 10.2462 6.48248 10.2832C6.48248 10.3203 6.49745 10.3557 6.524 10.3815L7.418 11.2585C7.49766 11.336 7.54261 11.4424 7.54261 11.5535C7.54261 11.6646 7.49766 11.771 7.418 11.8485C7.25054 12.0113 6.98396 12.0113 6.8165 11.8485L5.9225 10.972C5.73647 10.7912 5.63151 10.5429 5.63151 10.2835C5.63151 10.0241 5.73647 9.77576 5.9225 9.595L10.2755 5.326C10.5144 5.09351 10.6491 4.77433 10.6491 4.441C10.6491 4.10767 10.5144 3.78849 10.2755 3.556L10.2505 3.5315C9.74874 3.04315 8.94957 3.04249 8.447 3.53L4.861 7.047L4.86 7.048L4.811 7.0965C4.64347 7.2596 4.37653 7.2596 4.209 7.0965C4.12934 7.01903 4.08439 6.91262 4.08439 6.8015C4.08439 6.69038 4.12934 6.58397 4.209 6.5065L7.8455 2.94C8.0837 2.70736 8.21787 2.38839 8.21759 2.05543C8.2173 1.72248 8.08259 1.40374 7.844 1.1715Z" fill="#000000" fill-rule="evenodd" opacity="1" stroke="none"/>
<path d="M7.2425 2.3515C7.32216 2.27403 7.36711 2.16762 7.36711 2.0565C7.36711 1.94538 7.32216 1.83897 7.2425 1.7615C7.07497 1.5984 6.80803 1.5984 6.6405 1.7615L3.081 5.2525C2.68268 5.63987 2.45796 6.17188 2.45796 6.7275C2.45796 7.28312 2.68268 7.81513 3.081 8.2025C3.91828 9.01694 5.25172 9.01694 6.089 8.2025L9.649 4.7115C9.72866 4.63403 9.77361 4.52762 9.77361 4.4165C9.77361 4.30538 9.72866 4.19897 9.649 4.1215C9.48147 3.9584 9.21453 3.9584 9.047 4.1215L5.4875 7.6125C4.98515 8.1014 4.18485 8.1014 3.6825 7.6125C3.44364 7.38001 3.30889 7.06083 3.30889 6.7275C3.30889 6.39417 3.44364 6.07499 3.6825 5.8425C3.6825 5.8425 7.2425 2.3515 7.2425 2.3515Z" fill="#000000" fill-rule="evenodd" opacity="1" stroke="none"/>
</g>
</svg>
